<?xml version="1.0" encoding="utf-8"?>
<!-- Generator: Adobe Illustrator 22.0.1, SVG Export Plug-In . SVG Version: 6.00 Build 0)  -->
<svg version="1.1" id="Layer_1" xmlns="http://www.w3.org/2000/svg" xmlns:xlink="http://www.w3.org/1999/xlink" x="0px" y="0px"
	 viewBox="0 0 483.8 146.3" style="enable-background:new 0 0 483.8 146.3;" xml:space="preserve">
<style type="text/css">
	.st0{fill-rule:evenodd;clip-rule:evenodd;fill:#FE8300;}
</style>
<path class="st0" d="M302.3,1.9c17.4,0,27,14.4,21.3,31.9c-5.8,17.6-24.8,31.9-42.4,31.9c-17.1,0-26.8-14.3-21-31.9
	C265.9,16.3,284.7,1.9,302.3,1.9z"/>
<path class="st0" d="M380.7,1.9c17.6,0,27.3,14.4,21.5,31.9c-5.8,17.6-24.8,31.9-42.4,31.9c-17.4,0-26.9-14.3-21.1-31.9
	C344.5,16.3,363.3,1.9,380.7,1.9z"/>
<path class="st0" d="M458.2,1.9c17.4,0,26.9,14.4,21.3,31.9c-5.8,17.6-24.8,31.9-42.3,31.9c-17.4,0-27.3-14.3-21.3-31.9
	C421.6,16.3,440.6,1.9,458.2,1.9z"/>
<path class="st0" d="M354.8,80.8c17.6,0,27.3,14.1,21.5,31.7c-5.6,17.6-24.7,31.9-42.3,31.9c-17.6,0-27.1-14.3-21.5-31.9
	C318.4,94.9,337.6,80.8,354.8,80.8z"/>
<path class="st0" d="M78.8,40.5c-7,0-13.9,1.3-20.6,3.7c-3,1-5.9,2.3-8.8,3.7l8.8-22l1.2-3c0-0.2,0-0.2,0-0.2l2.8-7
	c1.4-3.7,1.4-6.7-0.2-8.8c-0.9-1.4-2.2-2.4-3.9-2.9c-1-0.3-2.1-0.5-3.4-0.5c-3.3,0-6.5,1.1-9.5,3.2c-3.3,2.3-6,5.3-7.6,9l-2.6,7.2
	l-23.4,59L10,86.4c0,0.2-0.2,0.4-0.2,0.5c-6.2,15.7-10.6,29.6-3.7,42.6c5.3,9.7,15.9,14.6,31.5,14.6c7,0,13.9-1.2,20.6-3.4
	c22.3-7.2,41.7-25.5,50.9-48.4C120.6,63.2,108.4,40.5,78.8,40.5z M84.6,92.4c-5.2,13.2-15.9,21.9-26.4,25.6c-3.7,1.3-7.3,2-10.8,2
	c-13.4,0.2-23.1-8.6-15.5-27.7c4.6-11.9,14.7-21.8,26.3-25.8c3.5-1.2,7.1-1.9,10.7-1.9C85.2,64.8,91,76.6,84.6,92.4z"/>
<path class="st0" d="M195.8,40.5c-10,0-19.9,2.8-29.1,7.2l2.6-6.7l10.7-26.8c1.4-3.9,1.4-6.9-0.2-9c-1.4-2.1-4.1-3.3-7.2-3.3
	c-3.3,0-6.5,1.1-9.5,3c-3.3,2.5-6,5.5-7.4,9.3l-46.5,117.8c-1.8,4-1.6,6.9,0.2,9c1.4,2.1,3.7,3.2,7,3.2c3.2,0,6.7-1.1,9.7-3.2
	c3.3-2.1,5.6-4.9,7.2-9l17.1-43.3c6.9-13.6,21-24,35.6-24c16.2,0,21.8,11.8,15.7,27.7l0,0l-15.3,39.6c-1.4,4-1.4,7,0.2,9.2
	c1.6,1.9,4.1,3,7.2,3c3.5,0,6.5-1.1,9.9-3c3.2-2.1,5.6-5.1,7-9.2l15.3-39.6l0,0C237.5,63.2,225.2,40.5,195.8,40.5z"/>
</svg>
